<svg xmlns="http://www.w3.org/2000/svg" viewBox="0 0 280.09 280.09"><defs><style>.a{fill:#0796de;}.b{fill:none;stroke:#20558d;stroke-miterlimit:10;stroke-width:14px;}.c{opacity:0.25;}.d{fill:#215e95;}.e{opacity:0.9;}.f{fill:#fff;}</style></defs><rect class="a" x="7" y="7" width="266.09" height="266.09" rx="8.03"/><rect class="b" x="7" y="7" width="266.09" height="266.09" rx="12.11"/><g class="c"><rect class="d" x="26.75" y="24.63" width="19.95" height="230.83" rx="1.56"/><rect class="d" x="60.92" y="24.63" width="19.95" height="230.83" rx="1.56"/><rect class="d" x="94.95" y="24.63" width="19.95" height="230.83" rx="1.56"/><rect class="d" x="130.14" y="24.63" width="19.95" height="230.83" rx="1.56"/><rect class="d" x="164.17" y="24.63" width="19.95" height="230.83" rx="1.56"/><rect class="d" x="199.37" y="24.63" width="19.95" height="230.83" rx="1.56"/><rect class="d" x="233.39" y="24.63" width="19.95" height="230.83" rx="1.56"/></g><g class="e"><path class="f" d="M187.89,88.31a61.38,61.38,0,0,0-36.2,18.33c-9.61,9.87-14.81,21-16.9,35.79-.19,1.47-.46,1.27,5.13,3.56,8.11,3.33,21.08,8.63,24.41,10l3.43,1.37,1.11-.66a16.86,16.86,0,0,1,7.1-2.12l2.64-.2,4.87-7c2.68-3.85,6-8.62,7.42-10.62,2.22-3.2,2.52-3.82,2.52-5.09,0-4.19,2.61-10.43,5.84-13.92a22.68,22.68,0,0,1,16.41-7.65,23.26,23.26,0,0,1,21.86,12.81,20.84,20.84,0,0,1,2.29,10.13,21.15,21.15,0,0,1-7.26,16.66,22.71,22.71,0,0,1-14,6.25l-2.58.22-4.35,3-4.84,3.4c-1.5,1.08-9.47,6.7-10.49,7.39s-1.17.88-1.37,3.33a17.48,17.48,0,0,1-33.85,3.89l-.85-2.26L156,173.24c-2.32-1-7.52-3-11.5-4.67a68.8,68.8,0,0,0-7.42-2.78c-.3.3,1.76,5.72,3.59,9.48,8.5,17.42,24.58,29.6,44.09,33.46,3.43.69,4.83.78,11.43.78,8.86,0,12.55-.55,19.74-2.94a61.78,61.78,0,0,0,37.58-35,58.5,58.5,0,0,0,4.31-27.23,59.92,59.92,0,0,0-18.72-39.44,62.31,62.31,0,0,0-32.29-16.3A83,83,0,0,0,187.89,88.31Z" transform="translate(-10.2 -8.66)"/><path class="f" d="M213,118.08a25,25,0,0,0-3.14,1.24,15.9,15.9,0,0,0-7.25,7.29c-1.18,2.45-1.21,2.58-1.21,6.27,0,3.34.1,4,.85,5.82a15.17,15.17,0,0,0,13.59,9.48,14.71,14.71,0,0,0,9.45-2.52,11.67,11.67,0,0,0,4.54-4.77,13.53,13.53,0,0,0,2.16-7.74,14.38,14.38,0,0,0-4.35-10.79,14.67,14.67,0,0,0-11.17-4.47C215,117.92,213.48,118,213,118.08Zm7.29,4a11.42,11.42,0,0,1,4.15,19.38c-8.07,7.29-21.18.23-19.25-10.39A11.52,11.52,0,0,1,220.31,122.13Z" transform="translate(-10.2 -8.66)"/><path class="f" d="M174.49,159.06c-.62.2-1,.46-.81.62s1.89.88,3.82,1.67a38.65,38.65,0,0,1,5,2.28,9.34,9.34,0,0,1,4.15,9.19,9.51,9.51,0,0,1-2.58,5.36,9.24,9.24,0,0,1-6.9,2.74c-2.09,0-2.84-.19-6.76-1.76L166,177.39l.52,1a13.67,13.67,0,0,0,5.59,4.94,13.29,13.29,0,0,0,15.52-3.37,12.72,12.72,0,0,0-4.15-19.8,10,10,0,0,0-5.13-1.31A15.49,15.49,0,0,0,174.49,159.06Z" transform="translate(-10.2 -8.66)"/></g><g class="e"><rect class="f" x="33.76" y="156.15" width="94.27" height="30.63" rx="13.82" transform="translate(249.14 226.85) rotate(135)"/><rect class="f" x="33.76" y="110.64" width="94.27" height="30.63" rx="13.82" transform="translate(102.56 -28.97) rotate(45)"/></g></svg>